<?xml version="1.0" encoding="utf-8"?>
<svg viewBox="0 0 497 233" width="497" height="233" xmlns="http://www.w3.org/2000/svg">
  <g transform="matrix(1.629344, 0, 0, 1.628578, -139.542603, -176.644012)" id="g26" style="stroke-width: 1.02017;">
    <g data-paper-data="{&quot;isPaintingLayer&quot;:true}" stroke-miterlimit="10" style="mix-blend-mode:normal;fill-rule:evenodd;stroke-width:1.04074752;stroke-linejoin:round;stroke-miterlimit:10;stroke-dasharray:none;stroke-dashoffset:0" id="g24">
      <g id="g22" style="stroke-width:1.02017033">
        <path d="m 181.98735,177.52436 c 0,0 10.633,29.36 1.667,46.417 -8.304,15.797 -36.555,19.273 -43.731,17.985 -13.441,-2.414 -26.549,-21.871 -31.3758,-43.386 -3.9343,-17.536 -7.7306,-27.92 -1.4861,-47.846 6.2449,-19.925 67.2879,-36.835 67.2879,-36.835" data-paper-data="{&quot;origPos&quot;:null}" id="path2" style="stroke-width: 8.68165; stroke-linecap: butt; fill: none; stroke: rgb(229, 107, 111);"/>
        <path d="m 170.93435,180.97436 c 0.07,3.676 0.783,7.822 1.66,12.48 1.967,10.451 4.841,22.657 -1.385,34.456 -8.336,15.797 -36.696,19.274 -43.9,17.985 -13.493,-2.413 -26.6517,-21.871 -31.4973,-43.386 -3.9496,-17.536 -7.7606,-27.92 -1.4919,-47.846 6.2688,-19.925 67.5482,-36.835 67.5482,-36.835" data-paper-data="{&quot;origPos&quot;:null}" id="path4" style="stroke-width: 8.68165; stroke-linecap: butt; fill: none; stroke: rgb(229, 107, 111);"/>
        <path d="m 142.21035,177.89636 c 0,-2.083 1.949,-3.771 4.353,-3.771 2.405,0 4.354,1.688 4.354,3.771 0,2.083 -1.949,3.771 -4.354,3.771 -2.404,0 -4.353,-1.688 -4.353,-3.771 z" data-paper-data="{&quot;origPos&quot;:null}" id="path6" style="stroke-width: 8.68165; stroke-linecap: round; fill: rgb(229, 107, 111); stroke: rgb(229, 107, 111);"/>
        <path d="m 171.35335,181.48936 10.402,-3.516" data-paper-data="{&quot;origPos&quot;:null}" id="path8" style="stroke-width: 9.52839; stroke-linecap: round; fill: rgb(229, 107, 111); stroke: rgb(229, 107, 111);"/>
        <g data-paper-data="{&quot;origPos&quot;:null}" id="g20" style="fill:#000000;stroke:none;stroke-width:1.02017033;stroke-linecap:round" transform="matrix(1, 0, 0, 1, -3.682464, 0)">
          <path d="m 204.89035,198.74236 h 12.67 v 5.88 c 1.353,-2.146 3.01,-3.791 4.97,-4.935 1.96,-1.143 4.246,-1.715 6.86,-1.715 0.326,0 0.688,0 1.085,0 0.396,0 0.851,0.047 1.365,0.14 v 12.11 c -1.68,-0.84 -3.5,-1.26 -5.46,-1.26 -2.94,0 -5.145,0.875 -6.615,2.625 -1.47,1.75 -2.205,4.305 -2.205,7.665 v 15.4 h -12.67 z" id="path10" style="stroke-width: 1.02017; fill: rgb(229, 107, 111);"/>
          <path d="m 243.00935,216.52236 c 0,1.214 0.221,2.322 0.665,3.325 0.443,1.004 1.026,1.879 1.75,2.625 0.723,0.747 1.586,1.33 2.59,1.75 1.003,0.42 2.065,0.63 3.185,0.63 1.12,0 2.181,-0.21 3.185,-0.63 1.003,-0.42 1.866,-1.003 2.59,-1.75 0.723,-0.746 1.306,-1.621 1.75,-2.625 0.443,-1.003 0.665,-2.088 0.665,-3.255 0,-1.12 -0.222,-2.181 -0.665,-3.185 -0.444,-1.003 -1.027,-1.878 -1.75,-2.625 -0.724,-0.746 -1.587,-1.33 -2.59,-1.75 -1.004,-0.42 -2.065,-0.63 -3.185,-0.63 -1.12,0 -2.182,0.21 -3.185,0.63 -1.004,0.42 -1.867,1.004 -2.59,1.75 -0.724,0.747 -1.307,1.61 -1.75,2.59 -0.444,0.98 -0.665,2.03 -0.665,3.15 z m -13.37,-0.14 c 0,-2.66 0.536,-5.145 1.61,-7.455 1.073,-2.31 2.566,-4.316 4.48,-6.02 1.913,-1.703 4.188,-3.045 6.825,-4.025 2.636,-0.98 5.518,-1.47 8.645,-1.47 3.08,0 5.938,0.479 8.575,1.435 2.636,0.957 4.923,2.287 6.86,3.99 1.936,1.704 3.441,3.734 4.515,6.09 1.073,2.357 1.61,4.959 1.61,7.805 0,2.847 -0.549,5.449 -1.645,7.805 -1.097,2.357 -2.602,4.387 -4.515,6.09 -1.914,1.704 -4.212,3.022 -6.895,3.955 -2.684,0.934 -5.589,1.4 -8.715,1.4 -3.08,0 -5.927,-0.466 -8.54,-1.4 -2.614,-0.933 -4.865,-2.263 -6.755,-3.99 -1.89,-1.726 -3.372,-3.791 -4.445,-6.195 -1.074,-2.403 -1.61,-5.075 -1.61,-8.015 z" id="path12" style="stroke-width: 1.02017; fill: rgb(229, 107, 111);"/>
          <path d="m 285.25735,216.52236 c 0,1.214 0.222,2.322 0.665,3.325 0.444,1.004 1.027,1.879 1.75,2.625 0.724,0.747 1.587,1.33 2.59,1.75 1.004,0.42 2.065,0.63 3.185,0.63 1.12,0 2.182,-0.21 3.185,-0.63 1.004,-0.42 1.867,-1.003 2.59,-1.75 0.724,-0.746 1.307,-1.621 1.75,-2.625 0.444,-1.003 0.665,-2.088 0.665,-3.255 0,-1.12 -0.221,-2.181 -0.665,-3.185 -0.443,-1.003 -1.026,-1.878 -1.75,-2.625 -0.723,-0.746 -1.586,-1.33 -2.59,-1.75 -1.003,-0.42 -2.065,-0.63 -3.185,-0.63 -1.12,0 -2.181,0.21 -3.185,0.63 -1.003,0.42 -1.866,1.004 -2.59,1.75 -0.723,0.747 -1.306,1.61 -1.75,2.59 -0.443,0.98 -0.665,2.03 -0.665,3.15 z m -13.37,-0.14 c 0,-2.66 0.537,-5.145 1.61,-7.455 1.074,-2.31 2.567,-4.316 4.48,-6.02 1.914,-1.703 4.189,-3.045 6.825,-4.025 2.637,-0.98 5.519,-1.47 8.645,-1.47 3.08,0 5.939,0.479 8.575,1.435 2.637,0.957 4.924,2.287 6.86,3.99 1.937,1.704 3.442,3.734 4.515,6.09 1.074,2.357 1.61,4.959 1.61,7.805 0,2.847 -0.548,5.449 -1.645,7.805 -1.096,2.357 -2.601,4.387 -4.515,6.09 -1.913,1.704 -4.211,3.022 -6.895,3.955 -2.683,0.934 -5.588,1.4 -8.715,1.4 -3.08,0 -5.926,-0.466 -8.54,-1.4 -2.613,-0.933 -4.865,-2.263 -6.755,-3.99 -1.89,-1.726 -3.371,-3.791 -4.445,-6.195 -1.073,-2.403 -1.61,-5.075 -1.61,-8.015 z" id="path14" style="stroke-width: 1.02017; fill: rgb(229, 107, 111);"/>
          <path d="m 323.65635,198.74236 8.54,18.41 8.68,-18.41 h 14.14 l -18.69,35.91 h -8.47 l -18.48,-35.91 z" id="path16" style="stroke-width: 1.02017; fill: rgb(229, 107, 111);"/>
          <path d="m 377.17535,211.48236 c -0.42,-1.773 -1.283,-3.196 -2.59,-4.27 -1.307,-1.073 -2.893,-1.61 -4.76,-1.61 -1.96,0 -3.558,0.514 -4.795,1.54 -1.237,1.027 -2.018,2.474 -2.345,4.34 z m -14.84,7.35 c 0,5.46 2.567,8.19 7.7,8.19 2.753,0 4.83,-1.12 6.23,-3.36 h 12.25 c -2.473,8.214 -8.657,12.32 -18.55,12.32 -3.033,0 -5.81,-0.455 -8.33,-1.365 -2.52,-0.91 -4.678,-2.205 -6.475,-3.885 -1.797,-1.68 -3.185,-3.686 -4.165,-6.02 -0.98,-2.333 -1.47,-4.946 -1.47,-7.84 0,-2.986 0.467,-5.681 1.4,-8.085 0.933,-2.403 2.263,-4.445 3.99,-6.125 1.727,-1.68 3.815,-2.975 6.265,-3.885 2.45,-0.91 5.215,-1.365 8.295,-1.365 3.033,0 5.763,0.455 8.19,1.365 2.427,0.91 4.48,2.229 6.16,3.955 1.68,1.727 2.963,3.839 3.85,6.335 0.887,2.497 1.33,5.309 1.33,8.435 v 1.33 z" id="path18" style="stroke-width: 1.02017; fill: rgb(229, 107, 111);"/>
        </g>
      </g>
    </g>
  </g>
</svg>